<?xml version="1.0" encoding="utf-8"?>
<!-- Generator: Adobe Illustrator 24.1.1, SVG Export Plug-In . SVG Version: 6.00 Build 0)  -->
<svg version="1.1" id="Layer_1" xmlns="http://www.w3.org/2000/svg" xmlns:xlink="http://www.w3.org/1999/xlink" x="0px" y="0px"
	 viewBox="0 0 24 24" style="enable-background:new 0 0 24 24;" xml:space="preserve">
<style type="text/css">
	.st0{fill:#222222;}
</style>
<path class="st0" d="M9,21.5c-3.9,0-7-3.2-7-7c0-1.8,0.7-3.6,2-4.9L9.7,4c2-1.9,5.1-1.9,7.1,0c1.9,2,1.9,5.1,0,7.1l-5.6,5.6
	c-1.2,1.2-3.1,1.2-4.2,0C6.3,16.1,6,15.3,6,14.5c0-0.8,0.3-1.6,0.9-2.1l5.7-5.6c0.4-0.4,1-0.4,1.4,0c0,0,0,0,0,0
	c0.4,0.4,0.4,1,0,1.4l-5.7,5.6c-0.4,0.4-0.4,1,0,1.4c0.4,0.4,1,0.4,1.4,0l5.7-5.6c1.1-1.2,1.1-3,0-4.2c-1.2-1.2-3.1-1.2-4.2,0
	L5.5,11c-1.9,1.9-1.9,5.1,0,7c2,1.9,5.1,1.9,7.1,0l7.8-7.7c0.4-0.4,1-0.4,1.4,0c0,0,0,0,0,0c0.4,0.4,0.4,1,0,1.4l-7.8,7.8
	C12.6,20.7,10.9,21.5,9,21.5z"/>
</svg>
