<svg id="Layer_1" data-name="Layer 1" xmlns="http://www.w3.org/2000/svg" viewBox="0 0 219.23 329.91"><defs><style>.cls-1{fill:#333;}.cls-2{fill:#666;}</style></defs><polygon class="cls-1" points="125.33 0 124.83 0.5 55.48 69.85 115.73 130.1 74.62 171.21 14.37 110.96 0 125.33 74.62 199.95 75.12 199.44 144.47 130.1 84.22 69.85 125.33 28.74 185.58 88.99 199.95 74.62 125.33 0"/><polygon class="cls-2" points="144.61 129.96 144.1 130.47 74.76 199.81 135.01 260.06 93.9 301.17 33.65 240.92 19.28 255.29 93.9 329.91 94.4 329.41 163.75 260.06 103.5 199.81 144.61 158.71 204.86 218.95 219.23 204.58 144.61 129.96"/></svg>